<?xml version="1.0" encoding="UTF-8"?>
<svg version="1.1" xmlns="http://www.w3.org/2000/svg" width="131" height="24">
<path d="M0 0 C3.75843663 1.87921831 5.14975355 3.02470615 7.75 6.125 C8.36359375 6.84945313 8.9771875 7.57390625 9.609375 8.3203125 C10.29773438 9.15175781 10.29773438 9.15175781 11 10 C11.33 6.7 11.66 3.4 12 0 C13.98 0 15.96 0 18 0 C18 4.62 18 9.24 18 14 C16.35 14 14.7 14 13 14 C13 16.97 13 19.94 13 23 C12.34 23 11.68 23 11 23 C9.34375 21.3203125 9.34375 21.3203125 7.5 19.125 C5.71066742 17.00964496 3.95980876 14.95980876 2 13 C1.67 16.3 1.34 19.6 1 23 C-0.98 23 -2.96 23 -5 23 C-5 18.38 -5 13.76 -5 9 C-3.35 9 -1.7 9 0 9 C0 6.03 0 3.06 0 0 Z " fill="#D0FE11" transform="translate(5,0)"/>
<path d="M0 0 C1.32 0 2.64 0 4 0 C4.99 2.31 5.98 4.62 7 7 C9.22189824 4.77810176 9.92598892 2.91517292 11 0 C12.32 0 13.64 0 15 0 C15 4.29 15 8.58 15 13 C14.01 13 13.02 13 12 13 C11.67 11.35 11.34 9.7 11 8 C10.34 9.65 9.68 11.3 9 13 C8.01 13 7.02 13 6 13 C5.34 11.35 4.68 9.7 4 8 C3.67 9.65 3.34 11.3 3 13 C2.01 13 1.02 13 0 13 C0 8.71 0 4.42 0 0 Z " fill="#FEFEFE" transform="translate(28,6)"/>
<path d="M0 0 C1.32 0.33 2.64 0.66 4 1 C5.75 4.0625 5.75 4.0625 7 7 C7.33 4.69 7.66 2.38 8 0 C8.66 0 9.32 0 10 0 C10 4.29 10 8.58 10 13 C8.68 12.67 7.36 12.34 6 12 C4.25 8.9375 4.25 8.9375 3 6 C2.67 8.31 2.34 10.62 2 13 C1.34 13 0.68 13 0 13 C0 8.71 0 4.42 0 0 Z " fill="#FEFEFE" transform="translate(90,6)"/>
<path d="M0 0 C2.31 0 4.62 0 7 0 C8.85776765 3.13498292 9.20140476 5.37471432 9 9 C8.01 9 7.02 9 6 9 C5.67 6.69 5.34 4.38 5 2 C4.67 2 4.34 2 4 2 C3.67 4.31 3.34 6.62 3 9 C2.01 9 1.02 9 0 9 C0 6.03 0 3.06 0 0 Z " fill="#FEFEFE" transform="translate(55,10)"/>
<path d="M0 0 C3.0625 0.1875 3.0625 0.1875 5.0625 2.1875 C5.3125 4.6875 5.3125 4.6875 5.0625 7.1875 C3.0625 9.1875 3.0625 9.1875 0.0625 9.5 C-0.9275 9.396875 -1.9175 9.29375 -2.9375 9.1875 C-4.9375 6.1875 -4.9375 6.1875 -4.625 3.5625 C-3.63731654 0.1505026 -3.65603948 0.23336422 0 0 Z M-0.9375 1.1875 C-2.23383621 2.25395115 -2.23383621 2.25395115 -2 4.75 C-1.979375 5.554375 -1.95875 6.35875 -1.9375 7.1875 C-0.6175 7.1875 0.7025 7.1875 2.0625 7.1875 C2.0625 5.5375 2.0625 3.8875 2.0625 2.1875 C1.0725 1.8575 0.0825 1.5275 -0.9375 1.1875 Z " fill="#FEFEFE" transform="translate(75.9375,9.8125)"/>
<path d="M0 0 C2.5 0.25 2.5 0.25 4.5 2.25 C4.5 3.24 4.5 4.23 4.5 5.25 C2.52 5.58 0.54 5.91 -1.5 6.25 C-1.5 6.91 -1.5 7.57 -1.5 8.25 C0.15 7.92 1.8 7.59 3.5 7.25 C3.17 7.91 2.84 8.57 2.5 9.25 C0.125 9.375 0.125 9.375 -2.5 9.25 C-4.5 7.25 -4.5 7.25 -4.75 4.75 C-4.40058445 1.25584452 -3.49415548 0.34941555 0 0 Z M-1.5 1.25 C-1.83 2.24 -2.16 3.23 -2.5 4.25 C-1.18 4.25 0.14 4.25 1.5 4.25 C1.17 3.26 0.84 2.27 0.5 1.25 C-0.16 1.25 -0.82 1.25 -1.5 1.25 Z " fill="#FEFEFE" transform="translate(106.5,9.75)"/>
<path d="M0 0 C0.78375 0.04125 1.5675 0.0825 2.375 0.125 C3.035 1.775 3.695 3.425 4.375 5.125 C2.065 5.125 -0.245 5.125 -2.625 5.125 C-2.295 5.785 -1.965 6.445 -1.625 7.125 C0.025 7.125 1.675 7.125 3.375 7.125 C3.045 7.785 2.715 8.445 2.375 9.125 C0.065 8.795 -2.245 8.465 -4.625 8.125 C-4.75 5.25 -4.75 5.25 -4.625 2.125 C-2.625 0.125 -2.625 0.125 0 0 Z M-1.625 1.125 C-1.955 2.115 -2.285 3.105 -2.625 4.125 C-1.305 4.125 0.015 4.125 1.375 4.125 C1.045 3.135 0.715 2.145 0.375 1.125 C-0.285 1.125 -0.945 1.125 -1.625 1.125 Z " fill="#FEFEFE" transform="translate(49.625,9.875)"/>
<path d="M0 0 C0.99 0 1.98 0 3 0 C3 0.66 3 1.32 3 2 C3.66 2.33 4.32 2.66 5 3 C4.34 3 3.68 3 3 3 C3 5.31 3 7.62 3 10 C3.66 10.33 4.32 10.66 5 11 C3.35 10.67 1.7 10.34 0 10 C-1.125 2.25 -1.125 2.25 0 0 Z " fill="#FEFEFE" transform="translate(120,8)"/>
<path d="M0 0 C1.65 0 3.3 0 5 0 C5 0.66 5 1.32 5 2 C4.01 2.33 3.02 2.66 2 3 C3.32 3.66 4.64 4.32 6 5 C5.67 6.32 5.34 7.64 5 9 C3.02 9 1.04 9 -1 9 C-1 8.34 -1 7.68 -1 7 C0.32 7.33 1.64 7.66 3 8 C3 7.01 3 6.02 3 5 C1.68 4.67 0.36 4.34 -1 4 C-0.67 2.68 -0.34 1.36 0 0 Z " fill="#FEFEFE" transform="translate(113,10)"/>
<path d="M0 0 C1.98 0 3.96 0 6 0 C5.34 0.66 4.68 1.32 4 2 C3.59952556 4.32275177 3.2602896 6.65739357 3 9 C2.01 9 1.02 9 0 9 C0 6.03 0 3.06 0 0 Z " fill="#FEFEFE" transform="translate(82,10)"/>
<path d="M0 0 C0.66 0 1.32 0 2 0 C2 0.66 2 1.32 2 2 C2.99 2.33 3.98 2.66 5 3 C4.01 3 3.02 3 2 3 C2.44703986 7.47883696 2.44703986 7.47883696 5 11 C3.35 10.67 1.7 10.34 0 10 C0 7.69 0 5.38 0 3 C-0.66 2.67 -1.32 2.34 -2 2 C-1.34 2 -0.68 2 0 2 C0 1.34 0 0.68 0 0 Z " fill="#FEFEFE" transform="translate(66,8)"/>
<path d="" fill="#FEFEFE" transform="translate(0,0)"/>
</svg>
